<?xml version="1.0" standalone="no"?>
<!DOCTYPE svg PUBLIC "-//W3C//DTD SVG 20010904//EN"
 "http://www.w3.org/TR/2001/REC-SVG-20010904/DTD/svg10.dtd">
<svg version="1.0" xmlns="http://www.w3.org/2000/svg"
 width="233.000000pt" height="228.000000pt" viewBox="0 0 233.000000 228.000000"
 preserveAspectRatio="xMidYMid meet">

<g transform="translate(0.000000,228.000000) scale(0.100000,-0.100000)"
fill="#000000" stroke="none">
<path d="M92 2218 c-9 -9 -12 -257 -12 -1063 0 -935 2 -1053 16 -1073 l15 -22
1058 0 c880 0 1060 2 1070 14 8 10 10 301 9 1082 l-3 1069 -1070 3 c-825 2
-1074 -1 -1083 -10z m2103 -43 l25 -24 0 -999 c0 -969 -1 -1001 -19 -1023
l-19 -24 -1012 0 -1012 0 -19 24 c-18 22 -19 54 -19 1023 l0 999 25 24 24 25
1001 0 1001 0 24 -25z"/>
<path d="M230 2123 c-41 -15 -40 0 -40 -973 0 -831 2 -938 16 -958 l15 -22
948 0 c906 0 949 1 964 18 16 17 17 98 17 964 0 867 -1 947 -17 959 -13 12
-175 14 -952 16 -515 1 -943 -1 -951 -4z m1375 -313 c9 -17 13 -40 10 -51 -5
-16 -3 -20 12 -17 13 2 17 -3 16 -19 -2 -14 4 -24 17 -28 11 -4 20 -15 20 -26
0 -17 -8 -19 -85 -19 -47 0 -85 -4 -85 -9 0 -6 -35 -33 -77 -62 -90 -60 -123
-88 -123 -105 0 -22 61 -64 169 -115 149 -70 324 -159 345 -175 11 -7 16 -20
13 -29 -8 -18 -83 -21 -155 -5 -26 6 -67 15 -92 19 -25 5 -113 26 -196 47
l-151 37 -36 -39 -36 -39 -25 25 c-24 23 -25 27 -12 52 l15 28 -71 21 c-50 15
-74 17 -81 10 -6 -6 -23 -11 -38 -11 -15 0 -31 -4 -34 -10 -3 -5 -19 -10 -36
-10 -24 0 -29 -4 -29 -25 0 -14 -4 -25 -9 -25 -10 0 -21 24 -21 48 0 9 -11 27
-24 41 -13 15 -28 40 -33 56 -8 23 -15 29 -32 27 -43 -7 -66 34 -36 64 25 25
17 37 -53 84 -70 46 -142 113 -142 130 0 35 80 22 302 -50 84 -27 156 -50 159
-50 3 0 23 14 44 30 42 33 89 40 99 14 5 -13 9 -14 21 -4 8 7 15 18 15 24 0 7
9 22 19 33 13 13 21 39 23 69 2 30 8 49 17 52 11 4 13 -6 7 -53 l-6 -57 47 6
c100 14 111 18 116 37 4 15 14 19 46 19 36 0 47 6 84 45 52 54 80 58 102 15z
m-606 -846 c27 -23 31 -32 31 -78 0 -29 -5 -57 -11 -63 -9 -9 -6 -19 10 -39
29 -37 27 -89 -4 -130 -26 -34 -86 -54 -165 -54 -67 0 -70 10 -70 195 0 90 3
170 6 179 5 13 23 16 89 16 75 0 87 -3 114 -26z m545 17 c3 -5 -9 -32 -28 -60
-28 -41 -31 -51 -18 -51 9 0 31 -9 49 -20 121 -74 52 -266 -90 -247 -69 9
-101 43 -114 124 -6 33 26 106 92 209 31 48 38 54 69 54 19 0 37 -4 40 -9z
m-337 -122 c8 -8 13 -8 17 0 11 18 77 13 92 -6 9 -13 13 -53 14 -129 0 -119
-6 -133 -51 -119 -17 6 -19 17 -19 96 0 49 -4 89 -9 89 -15 0 -21 -29 -21
-105 0 -65 -2 -73 -21 -78 -43 -11 -49 0 -49 95 0 67 -3 89 -12 86 -9 -3 -14
-33 -16 -90 -3 -91 -9 -102 -51 -91 -20 5 -21 12 -21 134 l0 129 68 0 c37 0
73 -5 79 -11z"/>
<path d="M880 885 c0 -32 3 -35 28 -35 27 0 52 15 52 31 0 16 -33 39 -56 39
-21 0 -24 -5 -24 -35z"/>
<path d="M880 725 c0 -43 1 -45 28 -45 34 0 52 16 52 47 0 24 -26 43 -59 43
-18 0 -21 -6 -21 -45z"/>
<path d="M1446 785 c-41 -41 -20 -105 34 -105 50 0 70 75 28 104 -28 20 -43
20 -62 1z"/>
</g>
</svg>
